<svg width="36.52" height="36.64" viewBox="0 0 36.52 36.64" fill="none" xmlns="http://www.w3.org/2000/svg">
<path fill-rule="evenodd" clip-rule="evenodd" d="M22.6264 16.5158L37.7597 31.6491C38.4263 32.3158 38.4263 33.3658 37.7597 33.9991L33.9263 37.8325C33.2764 38.4825 32.2264 38.4825 31.5764 37.8325L16.393 22.6491C12.5264 24.0991 8.00969 23.2825 4.90969 20.1825C1.07635 16.3658 0.726352 10.3825 3.82635 6.14914L10.2097 12.5325L12.5764 10.1825L6.17635 3.76581C10.4264 0.665805 16.393 1.0158 20.2264 4.84914C23.3764 8.01581 24.1764 12.6158 22.6264 16.5158ZM16.993 18.5491L32.7596 34.3158L34.2263 32.8324L18.4763 17.0824C19.243 16.0991 19.743 14.9991 19.943 13.8158C20.3596 11.4991 19.6763 9.01576 17.8763 7.21576C16.293 5.64909 14.2096 4.91576 12.143 5.03243L17.293 10.1824L10.2263 17.2491L5.0763 12.0991C4.95963 14.1658 5.69297 16.2658 7.2763 17.8324C9.00963 19.5658 11.393 20.2491 13.6596 19.9158C14.843 19.7491 15.9763 19.2991 16.993 18.5491Z" fill="black" fill-opacity="0.54"/>
</svg>
