<svg width="40" height="40" viewBox="0 0 40 40" fill="none" xmlns="http://www.w3.org/2000/svg">
<path d="M14.421 33.3931L13.3108 32.481C12.0138 31.4173 7.78447 27.411 7.78447 20.5039C7.78447 12.9138 12.7867 8.00884 20.5302 8.00884C28.081 8.00884 32.7721 12.6429 32.7721 20.1031C32.7721 27.0749 28.8577 31.0935 27.1739 32.4983L26.0856 33.4079V38.0699H40V31.9921H35.5281C37.7329 28.4514 38.85 24.4582 38.85 20.1031C38.85 9.23338 31.4879 1.93018 20.531 1.93018C9.44964 1.9306 1.71046 9.56861 1.71046 20.5035C1.71046 24.5335 2.85542 28.5678 4.95402 31.9921H0V38.0699H14.4214L14.421 33.3931Z" fill="black" fill-opacity="0.54"/>
</svg>
