<svg width="40" height="40" viewBox="0 0 40 40" fill="none" xmlns="http://www.w3.org/2000/svg">
<g id="place_24px">
<path id="icon/maps/place_24px" fill-rule="evenodd" clip-rule="evenodd" d="M19.9999 3.33325C13.5499 3.33325 8.33325 8.54992 8.33325 14.9999C8.33325 23.7499 19.9999 36.6666 19.9999 36.6666C19.9999 36.6666 31.6666 23.7499 31.6666 14.9999C31.6666 8.54992 26.4499 3.33325 19.9999 3.33325ZM11.6666 14.9999C11.6666 10.3999 15.3999 6.66659 19.9999 6.66659C24.5999 6.66659 28.3333 10.3999 28.3333 14.9999C28.3333 19.7999 23.5333 26.9833 19.9999 31.4666C16.5333 27.0166 11.6666 19.7499 11.6666 14.9999ZM15.8333 14.9999C15.8333 12.6987 17.6987 10.8333 19.9999 10.8333C21.4885 10.8333 22.8641 11.6274 23.6084 12.9166C24.3527 14.2058 24.3527 15.7941 23.6084 17.0833C22.8641 18.3724 21.4885 19.1666 19.9999 19.1666C17.6987 19.1666 15.8333 17.3011 15.8333 14.9999Z" fill="black" fill-opacity="0.54"/>
</g>
</svg>
