<svg width="40" height="40" viewBox="0 0 40 40" fill="none" xmlns="http://www.w3.org/2000/svg">
<g id="timeline_24px">
<path id="icon/action/timeline_24px" d="M38.3334 13.3333C38.3334 15.1667 36.8334 16.6667 35.0001 16.6667C34.7001 16.6667 34.4167 16.6333 34.1501 16.55L28.2167 22.4667C28.3001 22.7333 28.3334 23.0333 28.3334 23.3333C28.3334 25.1667 26.8334 26.6667 25.0001 26.6667C23.1667 26.6667 21.6667 25.1667 21.6667 23.3333C21.6667 23.0333 21.7001 22.7333 21.7834 22.4667L17.5334 18.2167C17.2667 18.3 16.9667 18.3333 16.6667 18.3333C16.3667 18.3333 16.0667 18.3 15.8001 18.2167L8.21675 25.8167C8.30008 26.0833 8.33341 26.3667 8.33341 26.6667C8.33341 28.5 6.83341 30 5.00008 30C3.16675 30 1.66675 28.5 1.66675 26.6667C1.66675 24.8333 3.16675 23.3333 5.00008 23.3333C5.30008 23.3333 5.58341 23.3667 5.85008 23.45L13.4501 15.8667C13.3667 15.6 13.3334 15.3 13.3334 15C13.3334 13.1667 14.8334 11.6667 16.6667 11.6667C18.5001 11.6667 20.0001 13.1667 20.0001 15C20.0001 15.3 19.9667 15.6 19.8834 15.8667L24.1334 20.1167C24.4001 20.0333 24.7001 20 25.0001 20C25.3001 20 25.6001 20.0333 25.8667 20.1167L31.7834 14.1833C31.7001 13.9167 31.6667 13.6333 31.6667 13.3333C31.6667 11.5 33.1667 10 35.0001 10C36.8334 10 38.3334 11.5 38.3334 13.3333Z" fill="black" fill-opacity="0.54"/>
</g>
</svg>
